<?xml version="1.0" encoding="UTF-8"?>
<svg viewBox="0 0 668.24939 419.75543" xmlns="http://www.w3.org/2000/svg">
 <defs>
  <filter id="b">
   <feGaussianBlur stdDeviation="3.9065"/>
  </filter>
  <radialGradient id="a" cx="526.87" cy="40.794" r="472.24" gradientTransform="matrix(.024775 .8614 -1.8369 .052844 355.24 38.88)" gradientUnits="userSpaceOnUse">
   <stop stop-color="burlywood" offset="0"/>
   <stop stop-color="burlywood" offset=".3786"/>
   <stop stop-color="burlywood" offset=".5781"/>
   <stop stop-color="burlywood" offset="1"/>
  </radialGradient>
 </defs>
 <g transform="translate(-485.87 -303.87)">
  <path transform="matrix(.68748 0 0 .68748 543 168.63)" d="m-65.032 207.42s7.3924 9.9182 17.099 9.9182c4.1778 0 11.895-0.21505 17.664-0.21505 4.5236 0 13.306-7.9072 18.74-7.9072 4.6658 0 7.5401 6.0228 12.835 6.0228 4.7436 0 9.634-1.4676 14.854-1.4676 4.7927 0 11.099 5.1553 16.271 5.1553 4.826 0 1.5055-6.5606 6.644-6.5606 4.851 0 22.522 4.2171 27.637 4.2171 4.8698 0 0.76093-0.7478 5.8568-0.7478 4.8843 0 11.431-3.1021 16.511-3.1021 4.8967 0 8.5474 3.2687 13.617 3.2687 4.9067 0 8.2673-4.5089 13.327-4.5089 4.9151 0-2.8327-1.8647 2.218-1.8647 4.9225 0 25.129 3.4918 30.172 3.4918 4.9292 0 8.1591 4.3984 13.197 4.3984 4.9344 0 17.528 3.4263 22.559 3.4263 4.9394 0 5.9492-8.4372 10.976-8.4372 4.9443 0 7.8861 1.8555 12.909 1.8555 4.9482 0 5.8863-1.9924 10.905-1.9924 4.9516 0 17.266 13.987 22.281 13.987 4.9551 0 5.7686-10.513 10.78-10.513 4.9584 0 10.091 0.66712 15.099 0.66712 4.9617 0 12.2-5.2866 17.206-5.2866 4.9645 0 5.2351 10.757 10.238 10.757 4.9668 0 9.4156-12.747 14.415-12.747 4.9692 0 10.958 5.3915 15.955 5.3915 4.9719 0 12.397-1.4656 17.392-1.4656 4.9742 0 7.0535 3.3345 12.046 3.3345 4.9767 0 3.3644-8.5883 8.3547-8.5883 4.9792 0 17.023 7.6717 22.012 7.6717 4.9813 0 11.082-0.54566 16.068-0.54566 4.9833 0 6.2123-0.80052 11.196-0.80052 4.9856 0 17.884 3.0974 22.865 3.0974 4.9879 0 2.6454 5.7149 7.6243 5.7149 4.9899 0 23.128-9.0124 28.105-9.0124 4.9925 0 0.37742 9.2344 5.3518 9.2344 4.9947 0 15.436-10.073 20.408-10.073 4.9972 0 3.6951 2.7164 8.6645 2.7164 5.0002 0 13.848 0.77773 18.816 0.77773 5.0026 0 12.315-1.5136 17.279-1.5136 5.0053 0-3.2208 5.7779 1.7406 5.7779 5.0084 0 16.953-8.842 21.912-8.842 5.0116 0 6.7825-0.00566 11.738-0.00566 5.0151 0 13.956 5.332 18.909 5.332 5.0184 0 6.3521-10.725 11.3-10.725 5.0223 0 14.72 7.9695 19.664 7.9695 5.0271 0 5.355 3.4464 10.295 3.4464 5.0318 0 7.3962-0.61299 12.331-0.61299 5.0373 0 21.285-5.5593 26.214-5.5593 5.0435 0 6.4188 4.1796 11.341 4.1796 5.0509 0 6.0287-3.5402 10.944-3.5402 5.059 0-0.66268 17.434 4.2439 17.434 5.0693 0 22.645-23.021 27.542-23.021 5.0813 0 6.1392 10.921 11.024 10.921 5.0957 0 14.957-2.9464 19.827-2.9464 5.1145 0 10.118 1.0198 14.969 1.0198 5.1383 0 10.234 0.10501 15.06 0.10501 5.1714 0 3.8196 3.5194 8.6117 3.5194 5.2196 0 15.711-2.4492 20.455-2.4492 5.2952 0 2.573 0.62748 7.2386 0.62748 5.4339 0 22.705 0.01536 27.229 0.01536 5.769 0-2.9462-1.0349 1.2318-1.0349 9.707 0 21.431-4.9443 21.431-4.9443 0.42898 0 4.8039 2.0244 4.8039 2.4533 0 0 1.8154 7.6369 1.8154 17.152 0 4.1455 2.9313 6.7752 2.9313 12.453 0 4.4865 0.92035 21.86 0.92035 27.211 0 4.6267-9.3863-1.3395-9.3863 3.8759 0 4.7031 7.0514 3.8507 7.0514 8.9915 0 4.7515-0.89269 17.398-0.89269 22.492 0 4.7856-1.6952 4.5554-1.6952 9.6167 0 4.8101 0.4042 9.8083 0.4042 14.845 0 4.8294-0.81618 12.766-0.81618 17.784 0 4.8451-2.7339 26.317-2.7339 31.32 0 4.8575-3.8925-1.5511-3.8925 3.4393 0 4.868 3.4926 12.367 3.4926 17.346 0 4.8773 1.4386 11.117 1.4386 16.087 0 4.886 6.7972 3.1626 6.7972 8.1252 0 4.893-5.5741 3.5045-5.5741 8.4594 0 4.9004-4.2656 10.887-4.2656 15.836 0 4.9067 10.542 9.9752 10.542 14.917 0 4.9129-7.6801 13.222-7.6801 18.158 0 4.9188-0.05243 11.932-0.05243 16.863 0 4.9241 0.35775 3.8586 0.35775 8.7827 0 4.9303-0.84836 8.6708-0.84836 13.589 0 4.9356 3.5672 16.189 3.5672 21.101 0 4.942-2.3446 13.023-2.3446 17.929 0 4.9484-2.7634 6.7141-2.7634 11.614 0 4.9549 1.177 10.763 1.177 15.656 0 4.9626-0.0394 7.4307-0.0394 12.317 0 4.9705 3.0706 9.735 3.0706 14.613 0 4.9797 1.0938 20.92 1.0938 25.788 0 4.9903 6.0857 6.3672 6.0857 11.225 0 5.0031-6.5858 1.8874-6.5858 6.7324 0 5.0179-4.0675 12.524-4.0675 17.353 0 5.0367 2.5311 8.6233 2.5311 13.433 0 5.061-0.4085 10.406-0.4085 15.192 0 5.0937 3.4364 17.79 3.4364 22.542 0 5.1408-7.5274-1.2228-7.5274 3.4802 0 5.2151 4.0719 13.195 4.0719 17.822 0 5.3506 0.12093 10.277 0.12093 14.764 0 5.6779 3.3159 6.2637 3.3159 10.409 0 9.5153-2.3296 18.74-2.3296 18.74 0 0.42897 6.5279-2.6355 6.0989-2.6355 0 0-6.3586 2.467-16.065 2.467-4.1778 0-17.252-1.718-23.02-1.718-4.5236 0-3.9904 3.6906-9.4238 3.6906-4.6658 0-13.415-0.33718-18.711-0.33718-4.7436 0-11.112-1.3001-16.332-1.3001-4.7927 0-4.737 5.8677-9.909 5.8677-4.826 0-15.588 2.133-20.726 2.133-4.851 0-8.4466-4.992-13.561-4.992-4.8698 0-3.6429-4.6533-8.7387-4.6533-4.8843 0-16.624-6.0246-21.704-6.0246-4.8967 0-15.465 4.9022-20.535 4.9022-4.9067 0-1.0387 3.7505-6.0979 3.7505-4.9151 0-16.027 1.1935-21.078 1.1935-4.9225 0-8.4956-0.96733-13.539-0.96733-4.9292 0-3.2001-5.2076-8.2378-5.2076-4.9344 0-13.238-0.13573-18.27-0.13573-4.9394 0-15.599 16.422-20.626 16.422-4.9443 0-16.708-7.9886-21.731-7.9886-4.9482 0 1.3367-2.8104-3.6819-2.8104-4.9516 0-11.74 13.278-16.754 13.278-4.9551 0-4.7109-13.816-9.7222-13.816-4.9584 0-7.7575-4.2751-12.766-4.2751-4.9617 0-13.947 3.2369-18.953 3.2369-4.9645 0-10.304-0.41557-15.307-0.41557-4.9668 0-9.6608 1.1221-14.661 1.1221-4.9692 0-20.075-2.0325-25.072-2.0325-4.9718 0-0.54589 1.2367-5.5407 1.2367-4.9741 0-13.049 1.5682-18.041 1.5682-4.9767 0-2.687-4.0281-7.6772-4.0281-4.9792 0-6.333 5.9835-11.321 5.9835-4.9813 0-17.785-1.7965-22.771-1.7965-4.9833 0-8.8562-5.4496-13.84-5.4496-4.9856 0-18.788 4.8879-23.769 4.8879-4.9879 0 4.5528-4.1951-0.42611-4.1951-4.9899 0-22.757 14.406-27.733 14.406-4.9925 0-5.6366-10.591-10.611-10.591-4.9947 0-4.4519-0.28304-9.4237-0.28304-4.9972 0-13.253 8.4831-18.223 8.4831-5.0002 0-14.97-7.3804-19.937-7.3804-5.0027 0 3.4392 0.1538-1.5252 0.1538-5.0053 0-21.032-1.1765-25.993-1.1765-5.0084 0-14.226 7.8143-19.185 7.8143-5.0116 0-1.1502 3.2541-6.1056 3.2541-5.0151 0-19.495-13.157-24.447-13.157-5.0184 0 0.52189 1.7779-4.426 1.7779-5.0223 0-14.154 0.30023-19.098 0.30023-5.0271 0-20.811 4.8053-25.75 4.8053-5.0318 0 1.7202-8.7542-3.2143-8.7542-5.0373 0-11.219 5.6484-16.148 5.6484-5.0435 0-10.453-0.32233-15.375-0.32233-5.0509 0-9.0408-1.0844-13.956-1.0844-5.059 0-17.604 9.082-22.511 9.082-5.0693 0-2.872-8.5856-7.7689-8.5856-5.0813 0-12.733-0.95855-17.617-0.95855-5.0957 0-9.1791 3.398-14.049 3.398-5.1145 0-8.8353 5.0364-13.686 5.0364-5.1383 0-5.0732-7.1478-9.899-7.1478-5.1714 0-13.265-0.51501-18.057-0.51501-5.2196 0-17.664 7.6188-22.407 7.6188-5.2952 0-10.008-9.5633-14.673-9.5633-5.4339 0-4.9093 2.1278-9.4333 2.1278-5.769 0-12.196-8.5294-16.374-8.5294-9.707 0-12.647 8.6968-12.647 8.6968-0.42897 0-4.8683-1.311-4.8683-1.74 0-4.8955 5.1946-17.528 5.1946-22.483 0-4.8986-2.3057-0.30403-2.3057-5.2559 0-4.9007 4.9e-4 -13.17 4.9e-4 -18.118 0-4.9039-4.3404 1.3412-4.3404-3.6053 0-4.9063 7.3992-14.307 7.3992-19.251 0-4.9083-0.86178-23.518-0.86178-28.459 0-4.9108-7.8448-6.3127-7.8448-11.252 0-4.913 6.2097-2.4888 6.2097-7.4261 0-4.915 3.338-14.554 3.338-19.489 0-4.9171 0.51094-6.2849 0.51094-11.218 0-4.9191-1.7303-11.301-1.7303-16.232 0-4.9205-5.9109-10.176-5.9109-15.104 0-4.9224 5.7574-9.9043 5.7574-14.831 0-4.9244 6.8942-12.186 6.8942-17.111s-19.244 0.63213-19.244-4.291c0-4.9284 3.426-14.844 3.426-19.765 0-4.9305 3.7617-15.627 3.7617-20.547 0-4.9321 0.80638-6.4507 0.80638-11.368 0-4.9343-0.02528-10.066-0.02528-14.982 0-4.9361 4.446 0.06981 4.446-4.8437 0-4.9385-3.9229-21.851-3.9229-26.763 0-4.9405 1.6224-6.7969 1.6224-11.706 0-4.9428-0.15103-10.13-0.15103-15.037 0-4.9448-0.87011-5.0487-0.87011-9.953 0-4.9474-6.6958-24.7-6.6958-29.602 0-4.9504 3.8488-0.80033 3.8488-5.6998 0-4.9533 7.1043-7.0168 7.1043-11.913 0-4.9562-0.62042-12.566-0.62042-17.459 0-4.9599-4.6548-13.707-4.6548-18.598 0-4.9635-0.03099-5.6386-0.03099-10.525 0-4.9672 4.0479-17.023 4.0479-21.905 0-4.9719-3.8499-9.8865-3.8499-14.765 0-4.9763 4.8146 0.52765 4.8146-4.345 0-4.9819-3.2889-16.424-3.2889-21.291 0-4.9885 5.8719-7.5223 5.8719-12.383 0-4.9961-8.9502-9.3536-8.9502-14.207 0-5.0046-1.8749-12.38-1.8749-17.225 0-5.0145 10.041-6.4924 10.041-11.327 0-5.0267-4.3076-11.759-4.3076-16.581 0-0.42897-0.48595 1.2063-0.05698 1.2063l2.6368-2.8794" fill="burlywood" fill-rule="evenodd" filter="url(#b)" opacity=".4463"/>
  <path transform="translate(523.26 -11.112)" d="m-31.839 315.46s5.0821 6.8186 11.755 6.8186c2.8722 0 8.1778-0.14785 12.144-0.14785 3.1099 0 9.1479-5.436 12.883-5.436 3.2076 0 5.1837 4.1405 8.8241 4.1405 3.2612 0 6.6232-1.0089 10.212-1.0089 3.2949 0 7.6302 3.5442 11.186 3.5442 3.3178 0 1.035-4.5103 4.5676-4.5103 3.335 0 15.484 2.8992 19 2.8992 3.3479 0 0.52312-0.51409 4.0264-0.51409 3.3579 0 7.8583-2.1326 11.351-2.1326 3.3664 0 5.8761 2.2471 9.3611 2.2471 3.3733 0 5.6836-3.0998 9.1617-3.0998 3.379 0-1.9474-1.2819 1.5248-1.2819 3.3841 0 17.276 2.4005 20.743 2.4005 3.3887 0 5.6092 3.0238 9.0725 3.0238 3.3923 0 12.05 2.3555 15.509 2.3555 3.3958 0 4.09-5.8004 7.5459-5.8004 3.3991 0 5.4215 1.2756 8.8746 1.2756 3.4018 0 4.0467-1.3697 7.4969-1.3697 3.4042 0 11.87 9.616 15.317 9.616 3.4066 0 3.9658-7.2276 7.411-7.2276 3.4088 0 6.9373 0.45863 10.38 0.45863 3.4111 0 8.3876-3.6344 11.829-3.6344 3.413 0 3.599 7.3951 7.0383 7.3951 3.4146 0 6.473-8.7632 9.9103-8.7632 3.4162 0 7.5333 3.7066 10.969 3.7066 3.418 0 8.523-1.0076 11.957-1.0076 3.4196 0 4.8492 2.2924 8.2813 2.2924 3.4214 0 2.313-5.9043 5.7437-5.9043 3.4231 0 11.703 5.2742 15.133 5.2742 3.4245 0 7.6189-0.37513 11.046-0.37513s4.2708-0.55034 7.6968-0.55034 12.295 2.1294 15.719 2.1294c3.4291 0 1.8187 3.9289 5.2416 3.9289 3.4305 0 15.9-6.1959 19.321-6.1959 3.4323 0 0.25947 6.3485 3.6792 6.3485 3.4337 0 10.612-6.9247 14.03-6.9247 3.4355 0 2.5403 1.8675 5.9567 1.8675 3.4375 0 9.5204 0.53467 12.935 0.53467 3.4392 0 8.4661-1.0406 11.879-1.0406 3.4411 0-2.2142 3.9722 1.1966 3.9722 3.4432 0 11.655-6.0787 15.064-6.0787l8.0695-0.00389c3.4478 0 9.5948 3.6656 12.999 3.6656 3.45 0 4.367-7.3729 7.7686-7.3729 3.4527 0 10.12 5.4789 13.518 5.4789 3.4561 0 3.6815 2.3694 7.0774 2.3694 3.4593 0 5.0848-0.42142 8.4771-0.42142 3.463 0 14.633-3.8219 18.022-3.8219 3.4673 0 4.4128 2.8734 7.7969 2.8734 3.4724 0 4.1446-2.4338 7.5238-2.4338 3.478 0-0.45558 11.985 2.9176 11.985 3.485 0 15.568-15.827 18.934-15.827 3.4933 0 4.2206 7.508 7.5788 7.508 3.5032 0 10.283-2.0256 13.63-2.0256 3.5161 0 6.9559 0.70113 10.291 0.70113 3.5324 0 7.0356 0.07218 10.353 0.07218 3.5552 0 2.6259 2.4195 5.9204 2.4195 3.5884 0 10.801-1.6838 14.062-1.6838 3.6403 0 1.7689 0.43138 4.9764 0.43138l18.719 0.01056c3.966 0-2.0255-0.71145 0.84688-0.71145 6.6734 0 14.733-3.3991 14.733-3.3991 0.29491 0 3.3026 1.3917 3.3026 1.6866 0 0 1.248 5.2502 1.248 11.792 0 2.8499 2.0152 4.6578 2.0152 8.561 0 3.0844 0.63273 15.029 0.63273 18.707 0 3.1808-6.4529-0.92089-6.4529 2.6646 0 3.2333 4.8477 2.6472 4.8477 6.1815 0 3.2666-0.6137 11.961-0.6137 15.463 0 3.29-1.1654 3.1318-1.1654 6.6113 0 3.3069 0.27789 6.743 0.27789 10.206 0 3.3202-0.56111 8.7766-0.56111 12.226 0 3.3309-1.8795 18.092-1.8795 21.532 0 3.3394-2.676-1.0664-2.676 2.3645 0 3.3466 2.4011 8.5018 2.4011 11.925 0 3.3531 0.989 7.6427 0.989 11.06 0 3.3591 4.673 2.1742 4.673 5.586 0 3.3639-3.8321 2.4093-3.8321 5.8156 0 3.369-2.9325 7.4847-2.9325 10.887 0 3.3733 7.2471 6.8577 7.2471 10.255 0 3.3775-5.28 9.0896-5.28 12.483 0 3.3816-0.03604 8.2031-0.03604 11.593s0.24595 2.6527 0.24595 6.0379-0.58323 5.961-0.58323 9.3425c0 3.3932 2.4524 11.13 2.4524 14.507 0 3.3975-1.6118 8.9528-1.6118 12.326 0 3.4019-1.8998 4.6158-1.8998 7.9846 0 3.4064 0.80916 7.3994 0.80916 10.763 0 3.4117-0.02709 5.1084-0.02709 8.4674 0 3.4171 2.111 6.6926 2.111 10.046 0 3.4234 0.75194 14.382 0.75194 17.729 0 3.4308 4.1838 4.3773 4.1838 7.7167 0 3.4395-4.5276 1.2976-4.5276 4.6284 0 3.4497-2.7963 8.6098-2.7963 11.93 0 3.4626 1.7401 5.9283 1.7401 9.2352 0 3.4793-0.28083 7.1542-0.28083 10.444 0 3.5018 2.3625 12.23 2.3625 15.497 0 3.5342-5.1749-0.84068-5.1749 2.3926 0 3.5853 2.7993 9.0716 2.7993 12.252 0 3.6784 0.08313 7.0654 0.08313 10.15 0 3.9034 2.2796 4.3062 2.2796 7.1562 0 6.5416-1.6015 12.884-1.6015 12.884 0 0.29491 4.4878-1.8119 4.1929-1.8119 0 0-4.3714 1.696-11.045 1.696-2.8722 0-11.86-1.1811-15.826-1.1811-3.1099 0-2.7434 2.5372-6.4787 2.5372-3.2076 0-9.2227-0.23182-12.863-0.23182-3.2611 0-7.6395-0.8938-11.228-0.8938-3.2949 0-3.2566 4.0339-6.8122 4.0339-3.3178 0-10.716 1.4664-14.249 1.4664-3.335 0-5.8069-3.4319-9.323-3.4319-3.3479 0-2.5044-3.1991-6.0077-3.1991-3.3579 0-11.428-4.1418-14.921-4.1418-3.3664 0-10.632 3.3702-14.117 3.3702-3.3733 0-0.71409 2.5784-4.1922 2.5784-3.379 0-11.018 0.82047-14.491 0.82047-3.3841 0-5.8406-0.66501-9.3079-0.66501-3.3887 0-2.2-3.5801-5.6633-3.5801-3.3923 0-9.101-0.09332-12.56-0.09332-3.3958 0-10.724 11.29-14.18 11.29-3.3991 0-11.487-5.492-14.94-5.492-3.4018 0 0.91898-1.9321-2.5312-1.9321-3.4042 0-8.0708 9.1282-11.518 9.1282-3.4066 0-3.2386-9.4979-6.6838-9.4979-3.4088 0-5.3331-2.939-8.7762-2.939-3.4111 0-9.5884 2.2253-13.03 2.2253-3.413 0-7.0838-0.2857-10.523-0.2857-3.4146 0-6.6416 0.77145-10.079 0.77145-3.4162 0-13.801-1.3973-17.237-1.3973-3.418 0-0.37529 0.8502-3.8091 0.8502-3.4196 0-8.9709 1.0781-12.403 1.0781-3.4214 0-1.8472-2.7692-5.2779-2.7692-3.4231 0-4.3538 4.1135-7.7832 4.1135-3.4245 0-12.227-1.2351-15.654-1.2351s-6.0885-3.7465-9.5144-3.7465-12.917 3.3603-16.341 3.3603c-3.4291 0 3.13-2.884-0.29294-2.884-3.4305 0-15.645 9.9037-19.066 9.9037-3.4323 0-3.875-7.2809-7.2948-7.2809-3.4337 0-3.0606-0.19459-6.4786-0.19459-3.4355 0-9.1115 5.832-12.528 5.832-3.4375 0-10.292-5.0739-13.706-5.0739-3.4392 0 2.3644 0.10573-1.0485 0.10573-3.4411 0-14.459-0.80879-17.87-0.80879-3.4432 0-9.7804 5.3722-13.189 5.3722-3.4454 0-0.79076 2.2372-4.1975 2.2372-3.4478 0-13.402-9.0449-16.807-9.0449-3.45 0 0.35879 1.2223-3.0428 1.2223-3.4527 0-9.7308 0.2064-13.13 0.2064-3.4561 0-14.307 3.3036-17.703 3.3036-3.4593 0 1.1826-6.0183-2.2097-6.0183-3.463 0-7.7127 3.8832-11.101 3.8832-3.4673 0-7.186-0.2216-10.57-0.2216-3.4724 0-6.2154-0.74549-9.5946-0.74549-3.478 0-12.102 6.2437-15.476 6.2437-3.485 0-1.9744-5.9024-5.3409-5.9024-3.4933 0-8.7534-0.65899-12.112-0.65899-3.5032 0-6.3104 2.336-9.6582 2.336-3.5161 0-6.0741 3.4625-9.409 3.4625-3.5324 0-3.4877-4.914-6.8054-4.914-3.5552 0-9.1194-0.35406-12.414-0.35406-3.5884 0-12.143 5.2378-15.404 5.2378-3.6403 0-6.88-6.5746-10.087-6.5746-3.7357 0-3.375 1.4628-6.4852 1.4628-3.966 0-8.3844-5.8638-11.257-5.8638-6.6734 0-8.6947 5.9789-8.6947 5.9789-0.29491 0-3.3468-0.90131-3.3468-1.1962 0-3.3656 3.5712-12.05 3.5712-15.457 0-3.3677-1.5851-0.20901-1.5851-3.6133 0-3.3691 3.4e-4 -9.0541 3.4e-4 -12.456 0-3.3713-2.9839 0.92205-2.9839-2.4786 0-3.373 5.0868-9.8359 5.0868-13.235 0-3.3744-0.59246-16.168-0.59246-19.565 0-3.3761-5.3931-4.3398-5.3931-7.7356 0-3.3776 4.2691-1.711 4.2691-5.1053 0-3.379 2.2948-10.006 2.2948-13.399 0-3.3804 0.35126-4.3207 0.35126-7.7123 0-3.3818-1.1896-7.7693-1.1896-11.159 0-3.3827-4.0636-6.9954-4.0636-10.384 0-3.384 3.9581-6.809 3.9581-10.196s4.7396-8.3777 4.7396-11.764-13.23 0.43457-13.23-2.95c0-3.3882 2.3553-10.205 2.3553-13.588 0-3.3896 2.5861-10.743 2.5861-14.126 0-3.3907 0.55437-4.4347 0.55437-7.8155 0-3.3922-0.01738-6.92-0.01738-10.3 0-3.3935 3.0565 0.04798 3.0565-3.33 0-3.3951-2.6969-15.022-2.6969-18.399 0-3.3965 1.1153-4.6727 1.1153-8.0478 0-3.398-0.10383-6.964-0.10383-10.338 0-3.3995-0.59819-3.4709-0.59819-6.8425 0-3.4012-4.6032-16.981-4.6032-20.35 0-3.4033 2.646-0.55021 2.646-3.9185 0-3.4053 4.8841-4.8239 4.8841-8.1902 0-3.4073-0.42652-8.6386-0.42652-12.003 0-3.4099-3.2001-9.4234-3.2001-12.785 0-3.4123-0.0213-3.8765-0.0213-7.2359 0-3.4148 2.7828-11.703 2.7828-15.059 0-3.4181-2.6467-6.7968-2.6467-10.15 0-3.4211 3.31 0.36275 3.31-2.9871 0-3.4249-2.261-11.291-2.261-14.637 0-3.4295 4.0368-5.1714 4.0368-8.5132 0-3.4347-6.1531-6.4304-6.1531-9.7672 0-3.4406-1.289-8.5112-1.289-11.842 0-3.4474 6.9033-4.4634 6.9033-7.7867 0-3.4558-2.9614-8.0844-2.9614-11.399 0-0.29491-0.33408 0.82927-0.03917 0.82927l1.8128-1.9795" fill="url(#a)" fill-rule="evenodd"/>
  <path transform="translate(523.26 -11.112)" d="m302.63 358.83c-5.9854 9.6012-11.198 22.469-18.266 30.157-6.6472-7.3721-9.0048-25.951-22.18-24.044-15.538 7.7514-24.711 25.178-38.707 33.336-4.5377-7.3787-17.325-7.3134-16.787 2.9342-1.7516 6.4821 1.1953 20.135-10.09 13.693-10.194-1.1319-24.456-11.277-32.879-3.0972-2.8288 7.3692 16.735 17.986 0.70927 14.717-17.024-0.69018-34.266-3.5998-51.245-2.0832-8.9798 6.8851 4.7622 16.261 8.6981 22.577-16.652-3.1476-34.604-12.797-51.232-11.492-7.5257 8.6074 8.7056 18.299 12.699 26.082 10.769 8.972-8.9464 5.0632-14.613 6.1944-9.0231 1.5237-25.958-3.0818-29.313 7.7431-1.2075 6.2236 17.038 8.4257 6.3496 8.3951-9.3191 1.3988-29.441-5.4227-30.704 7.8246 5.3714 10.069 22.557 12.87 28.53 19.154-10.73 1.6947-6.663 14.888 3.3053 14.182 16.12 0.2843 3.3325 3.2986-5.2073 6.3157-6.893 1.373-22.469 8.9687-11.145 15.283 8.737 3.5292 26.684 1.6352 30.183 4.2383-15.576 6.1115-34.835 6.83-47.84 17.279-0.92186 11.77 18.52 8.3609 26.268 10.514 7.6599 0.48283 21.375 1.0495 7.0455 5.0534-9.9555 0.76928-18.331 17.351-3.7402 16.627 6.5498 0.29329 28.049-6.3704 23.485-1.1411-7.5684 9.0391-24.863 14.058-25.572 26.652 10.282 7.5765 26.362 0.41903 38.62 1.1411 5.6597 0.35489 29.515-5.1705 17.048 1.7116-8.466 2.6802-14.279 17.995-0.60887 16.464 14.497-2.0556 31.627-7.9013 44.447-8.3951-2.3666 7.8609-15.666 17.976-7.6544 25.674 14.045-0.79223 24.351-14.151 37.054-19.398 0.08807 9.6668-11.987 23.934-1.4787 30.565 21.323-6.6535 40.809-20.821 60.713-28.853 1.5918 7.1046-3.5279 25.303 9.394 23.311 9.8289-4.8656 19.329-15.056 27.486-18.746 3.7676 7.7559-2.6066 29.386 12.525 25.919 9.7479-3.6141 8.0091-24.385 20.635-15.453 14.051 2.8983 28.924 15.185 43.21 11.133 3.0425-10.7-4.363-21.778-4.697-32.684 18.196 4.8231 35.468 12.89 54.015 16.301 11.467-1.6285-5.3912-19.337 7.4462-9.3764 6.9879 4.8442 24.588 16.379 26.824 1.8778 1.9683-9.8182 0.50045-19.889 2.0006-29.75 12.54 0.68978 25.906 9.4547 37.924 4.9719 5.9392-8.0325-12.369-15.65-10.873-19.398 18.9 0.73473 38.997 9.2557 57.234 5.5424 3.0729-8.6252-5.0956-17.416-7.3064-25.674 12.31-0.77284 27.777 6.9528 38.011 3.1787 5.1415-10.228-10.274-19.72-13.618-29.023 0.42439-7.6964 38.704 3.1491 30.319-11.893-8.853-3.753-18.117-6.7585-26.616-11.166 12.936-2.7088 27.029 0.33555 39.403-3.5863 4.5772-12.315-40.279-15.918-20.267-21.273 8.1763-4.6448 26.889-2.0311 27.573-13.53-7.7968-9.9919-26.285-4.7915-34.706-7.7431 9.8613-6.7316 27.172-7.0499 32.183-18.42-5.1088-11.17-23.53-5.3681-33.749-8.1506-4.413-1.5212-27.289 0.75353-21.136-3.4232 5.8719-4.66 23.182-7.9415 17.831-17.687-9.5692-4.7986-27 4.9116-32.531 1.8746 19.534-8.9283 10.1-21.666-8.5275-14.574-6.5135-0.39184-34.467 6.0536-16.697-2.9498 9.1014-1.9457 11.406-16.328-0.43489-13.775-13.665 1.9163-29.153 9.0232-40.62 11.003 5.703-8.7276 24.166-14.257 20.702-26-13.241-4.7112-29.383 8.6084-40.533 7.0095-3.8308-11.605-1.56-26.422-9.6549-36.189-17.226 1.738-34.071 18.591-49.318 19.887-3.3485-10.478-16.641-0.12843-21.31 4.1568-11.974-10.603-21.221-24.9-34.793-33.336l-2.4486 1.2403-0.76973 0.38987z" fill="#ffd42a" opacity=".8719"/>
  <path transform="translate(523.26 -11.112)" d="m502.13 618.3s-5.7204-1.0153-13.02-2.2532c-3.7063-0.62852-7.5551-1.4617-12-2.2155-4.0901-0.69362-8.799-1.309-12.889-2.0026-4.4452-0.75383-7.8166-1.3739-11.523-2.0024-7.2979-1.2376-12.674-2.7596-12.674-2.7596s2.3818 3.442 5.787 7.0818c1.8117 1.9365 3.1014 3.5475 5.1616 5.7496s5.0933 4.4558 6.9052 6.3925c3.4054 3.6399 6.9622 6.3416 6.9622 6.3416s-6.1982-0.70735-12.838-2.0564c-3.5329-0.71775-7.5773-1.6528-11.595-2.4689s-7.7744-1.3215-11.308-2.0393c-6.6405-1.3491-11.297-2.7126-11.297-2.7126s-0.75852 3.1328-0.95136 7.4981c-0.09512 2.1528 0.13861 4.1591 0.0211 6.8191-0.10392 2.3526-0.43448 5.23-0.54401 7.7093s0.02581 5.1331-0.07813 7.4857c-0.11751 2.6603-0.1305 5.2368-0.2256 7.3898-0.19284 4.3649-0.55157 7.0842-0.55157 7.0842s-3.5759-1.7787-8.2271-4.858c-2.4746-1.6383-5.5104-4.2332-8.3244-6.0962s-6.4691-3.5176-8.9439-5.1561c-4.6513-3.0794-6.3909-6.091-6.3909-6.091s0.38516 3.6106 2.0833 7.193c0.9921 2.0929 2.0283 3.7888 3.0204 5.8817 1.6982 3.5824 3.1655 7.2472 3.1655 7.2472s-3.4361-1.4645-9.483-3.6372c-2.9822-1.0716-5.9201-2.4758-9.6048-3.7997-3.2588-1.171-7.2177-2.8264-10.652-4.0605s-7.7247-1.7362-10.984-2.9072c-3.6851-1.3241-6.7229-2.729-9.7053-3.8006-6.0464-2.1726-10.083-3.6532-10.083-3.6532s0.58363 3.2115 1.4877 7.8359c0.45907 2.3481 0.66023 5.3141 1.2108 8.1304 0.50662 2.5913 1.5368 5.025 2.0434 7.6162 0.55058 2.8162 0.66185 5.7596 1.1209 8.1075 0.90394 4.6236 1.5256 7.6806 1.5256 7.6806s-3.1963-1.0649-9.0921-3.3515c-2.9937-1.1611-6.5262-2.8743-10.117-4.2669-3.3037-1.2813-6.8964-2.9625-10.2-4.2438-3.5905-1.3926-6.765-2.5459-9.7585-3.7069-5.8948-2.2862-10.552-3.7411-10.552-3.7411s-1.9256 2.5342-4.2095 6.9056c-1.1597 2.2197-2.5372 5.0658-3.9281 7.728-1.2798 2.4495-2.5607 5.3218-3.8404 7.7713-1.3909 2.6622-3.3167 4.7324-4.4763 6.9519-2.2835 4.3706-2.8628 7.67-2.8628 7.67s0.24168-3.3098-0.07717-8.0214c-0.15724-2.3236-1.1586-5.0297-1.3528-7.9006-0.17183-2.5391-0.0944-4.8623-0.27549-7.5382s-0.57285-5.0922-0.74469-7.6314c-0.1943-2.8713-0.39024-5.9269-0.54749-8.2506-0.31881-4.7111-0.32116-8.5446-0.32116-8.5446s-3.3989 2.6713-7.4398 6.1071c-2.0518 1.7446-4.3261 3.9692-6.787 6.0616-2.2643 1.9252-4.2626 3.8032-6.5268 5.7284-2.4609 2.0924-5.5243 3.8501-7.576 5.5945-4.0402 3.4352-6.0842 6.1273-6.0842 6.1273s0.11344-2.2645-0.04161-6.0618c-0.07875-1.9282-0.66763-4.2674-0.76206-6.58-0.08689-2.1278-0.88277-4.8989-0.96965-7.0267-0.09444-2.3126 1.0111-4.2152 0.93235-6.1432-0.15503-3.7967-1.592-5.4857-1.592-5.4857s-1.7781 1.1308-8.2538 4.7557c-3.1936 1.7877-8.4858 4.5648-12.432 6.7736-3.4899 1.9536-7.6381 3.4092-11.316 5.468s-8.0494 4.8674-11.539 6.821c-3.9464 2.2091-5.8212 4.0252-9.0151 5.8131-6.4751 3.6246-11.323 5.9908-11.323 5.9908s1.1916-3.76 2.4476-8.3981c0.63775-2.3551 0.58093-5.0456 1.3458-7.8703 0.70379-2.599 1.4734-4.6174 2.1772-7.2164 0.76491-2.8246 2.2426-5.6136 2.8803-7.9686 1.2558-4.6374 1.9184-8.6042 1.9184-8.6042s-3.7148 2.8489-8.8127 6.4202c-2.5141 1.7613-5.4757 4.206-8.582 6.3822-2.7474 1.9247-5.5192 3.6189-8.4145 5.6472s-5.6433 2.874-8.3907 4.7988c-3.1067 2.1765-6.572 6.0148-9.0863 7.7763-5.0974 3.571-8.8138 5.1606-8.8138 5.1606s2.4797-2.488 4.8607-6.6321c1.1742-2.0438 1.795-4.2047 3.2458-6.7299 1.2832-2.2334 3.1113-4.8763 4.4636-7.23s2.7269-4.7023 4.0101-6.9357c1.451-2.5255 2.5624-4.5251 3.7367-6.569 2.3808-4.1438 3.6174-6.4331 3.6174-6.4331s-3.5495 0.174-10.606 1.8091c-3.48 0.80637-8.7207 1.1099-13.021 2.1062-3.8029 0.88119-7.445 2.5042-11.453 3.4329s-7.523 1.4281-11.326 2.3093c-4.3003 0.99646-8.6421 2.3741-12.122 3.1805-7.0558 1.6349-11.801 2.6124-11.801 2.6124s4.0838-2.6407 9.0512-6.5281c2.6428-2.0682 4.7565-4.611 7.7618-6.9629s6.7846-3.961 9.4277-6.0294c4.9676-3.8875 7.9745-7.2241 7.9745-7.2241s-3.897 0.23542-11.301 1.0078c-3.6512 0.38093-7.3572 1.0416-11.869 1.5123-3.99 0.41625-9.4109 0.67703-13.616 1.1157s-8.1612 1.0356-12.151 1.4519c-4.5119 0.47071-9.3523 0.24797-13.004 0.62893-7.4029 0.77233-12.572 1.9012-12.572 1.9012s2.2771-2.9301 6.6774-6.549c2.1701-1.7847 5.7674-3.1574 8.4487-5.3625l7.932-6.5206c2.4992-2.0554 4.6227-4.0173 6.9942-5.9676 2.6817-2.2054 5.3691-4.2299 7.5394-6.0147l7.4439-6.128s-6.0329 0.53188-14.307 1.6383c-4.2013 0.56179-9.1194 1.4744-14.158 2.1482-4.6364 0.61997-8.8605 1.4327-13.497 2.0527-5.0389 0.6738-10.863 1.557-15.064 2.1187-8.2727 1.1062-13.96 1.1967-13.96 1.1967s5.3142-1.8542 12.225-4.9253c3.5089-1.5594 7.8576-3.2235 12.066-5.0939 3.8722-1.7209 7.3534-3.8391 11.226-5.56 4.2084-1.8703 8.8156-2.9827 12.324-4.542 6.9092-3.0706 11.263-5.6811 11.263-5.6811s-5.1574 0.28223-12.955-0.10314c-3.8458-0.19005-8.5492-0.67502-13.301-0.90984-4.2026-0.20769-8.328-0.9825-12.757-1.2014s-9.6274-0.21808-13.83-0.42576c-4.7523-0.23485-9.2895-0.26719-13.136-0.45726-7.7974-0.38533-12.912-0.68055-12.912-0.68055s5.5617-1.5463 13.078-3.7737c3.634-1.0769 7.3543-2.0864 11.932-3.4429 3.9534-1.1716 8.7937-2.8383 13.082-4.1092 4.1239-1.2221 8.4805-1.8043 12.604-3.0264 4.2891-1.271 7.2231-2.5974 11.177-3.7692 4.578-1.3566 10.324-3.2141 13.959-4.2912 7.5166-2.2275 12.94-3.3896 12.94-3.3896l-13.105-0.776c-3.486-0.20718-6.5677-1.1346-10.875-1.3906-3.8094-0.2264-7.931-0.16733-11.946-0.40593s-8.7249 0.35238-12.534 0.12597c-4.3077-0.25601-8.4667-1.0231-11.953-1.2303-7.0679-0.42005-11.759-0.78922-11.759-0.78922s4.4983-1.2466 12.415-3.6504c4.0201-1.2206 9.701-2.807 14.523-4.2709 4.4364-1.3469 8.5693-2.9896 13.006-4.3366 4.8216-1.4639 9.3072-2.7542 13.327-3.9747 7.9158-2.4033 14.128-4.1006 14.128-4.1006s-5.2682-0.0217-13.425 0.11c-4.1415 0.06687-9.5446 0.76902-14.512 0.84923-4.5704 0.0738-9.4559-0.54786-14.026-0.47406-4.9672 0.08021-9.3122 0.2378-13.454 0.30467-8.155 0.13168-13.728 0.79914-13.728 0.79914s4.9402-2.9861 12.363-5.2402c3.9492-1.1992 8.9285-1.4836 13.419-2.8474s8.7009-2.9294 12.651-4.1288c7.423-2.2541 13.205-4.117 13.205-4.117s-4.8095-1.1117-10.567-4.104c-2.9234-1.5194-5.8403-4.1776-9.3465-5.9999-3.2261-1.6767-6.6457-4.4456-9.8717-6.1222-3.5062-1.8223-6.1042-2.1795-9.0274-3.6988-5.7563-2.9918-10.431-5.6893-10.431-5.6893s5.5072 0.77416 12.619 0.7809c3.6109 0.00341 7.3338-0.41546 11.665-0.41136 3.9848 0.00377 9.183-0.33746 13.168-0.33368 4.3308 0.0041 7.4086 0.76895 11.019 0.77237 7.1101 0.00674 12.689 0.20927 12.689 0.20927s-5.1091-2.2319-11.423-4.4545c-3.359-1.1825-6.8364-2.9496-10.656-4.2943s-8.3125-2.1623-11.672-3.3449c-6.3138-2.2227-10.804-4.0314-10.804-4.0314s5.8032-0.36605 13.059-0.6373c3.5781-0.13378 6.9832-0.4556 11.404-0.62089 3.91-0.14618 8.0772 0.05977 12.198-0.09428s8.3297-0.22567 12.24-0.37185c4.4216-0.16531 8.2848-0.40368 11.863-0.53746 7.2546-0.27123 13.028-0.30208 13.028-0.30208s-3.0637-3.0416-6.0885-6.8241c-1.4917-1.8654-2.4589-3.2863-4.302-5.5912-1.6301-2.0384-3.7736-4.6347-5.4915-6.7829s-3.086-3.7926-4.7161-5.8311c-1.8434-2.3051-3.5488-5.154-5.0407-7.0195-3.0245-3.7821-5.9742-6.1705-5.9742-6.1705s4.1768 1.2346 10.49 3.1081c3.1135 0.92397 7.6991 2.0389 11.546 3.1805 3.4024 1.0097 6.5225 1.8273 10.108 2.8914s7.1754 2.1825 10.578 3.1922c3.8474 1.1418 7.5425 2.4071 10.656 3.3312 6.3127 1.8734 10.484 3.2151 10.484 3.2151s-2.4872-2.9354-5.9179-6.7958c-1.8253-2.0539-3.857-4.5959-5.9326-6.9314s-3.5347-4.5304-5.3602-6.5845c-3.4309-3.8605-6.7289-6.6666-6.7289-6.6666s4.9607 0.94799 12.069 1.5666c3.5057 0.30508 7.3121 0.30362 11.644 0.68056 3.8309 0.33339 7.5875 0.86 11.625 1.2114s9.2533 0.30799 13.084 0.64138c4.3321 0.37699 6.8244 1.0429 10.33 1.348 7.1078 0.61857 12.219 0.86748 12.219 0.86748s-1.9111-2.7708-5.031-6.395c-1.6599-1.9282-3.2739-4.5452-5.1615-6.7379s-5.0673-3.89-6.7274-5.8185c-3.1201-3.6243-4.8811-5.9346-4.8811-5.9346s4.1396 0.52572 10.132 2.3009c3.0425 0.90138 7.46 2.9028 11.109 3.9839 3.3576 0.99471 6.4592 1.2164 9.8168 2.2111 3.6491 1.0811 7.1028 2.1333 10.145 3.0346 5.9909 1.7749 10.37 3.095 10.37 3.095s-0.22389-3.4514 0.01173-7.8432c0.11965-2.2301 0.7617-4.553 0.90521-7.2277 0.13202-2.461 0.19379-5.1121 0.32582-7.5731 0.14351-2.6746-0.02803-5.117 0.09161-7.3469 0.23558-4.3911 0.5709-7.4602 0.5709-7.4602s2.325 3.1435 5.0798 6.8c1.6094 2.1362 3.2281 4.502 4.8375 6.6382 2.7548 3.6565 5.0118 6.1534 5.0118 6.1534s2.75-2.4429 6.7209-6.622c1.9583-2.061 4.6699-4.2207 7.0896-6.7673 2.14-2.2522 3.0902-4.7146 5.3454-7.0882s5.6611-4.4527 7.8011-6.705c2.4199-2.5469 4.8457-5.2572 6.8042-7.3184 3.9705-4.1788 5.133-6.6816 5.133-6.6816s0.99165 1.8779 3.1293 5.6531c1.0854 1.9169 3.6386 4.3801 4.9404 6.6792 1.1978 2.1154 3.5036 4.3368 4.7014 6.4522 1.3018 2.2991 2.0232 4.6796 3.1086 6.5963 2.1372 3.7745 3.2977 6.4628 3.2977 6.4628s1.4784-2.6855 3.7841-6.8248c1.1708-2.1018 2.5632-4.4494 3.9674-6.9702 1.292-2.3194 2.7034-4.9117 3.9953-7.2311 1.4042-2.5208 3.6392-5.4123 4.8099-7.5139 2.3053-4.1385 3.4088-6.9245 3.4088-6.9245s2.7943 2.3572 6.076 5.9143c1.6184 1.7542 3.0121 3.6243 5.0118 5.7918 1.7686 1.917 3.1267 4.312 4.9905 6.3322s3.7841 4.0284 5.5528 5.9454c2 2.1678 3.9338 3.9135 5.5524 5.6679l5.2498 5.6935s3.2927-1.9566 7.7276-5.5987c2.2519-1.8493 5.6251-4.483 8.326-6.701 2.4851-2.0408 3.8916-3.5609 6.3767-5.6017 2.7009-2.218 5.0368-4.4854 7.2886-6.3346 4.4342-3.6414 9.1-6.3471 9.1-6.3471s-2.4352 3.4337-5.3173 7.8776c-1.5334 2.3644-3.1021 5.068-4.8457 7.7566s-3.4955 5.2838-5.029 7.6484c-2.8821 4.4441-5.2338 7.9582-5.2338 7.9582s4.2687-2.2499 10.266-5.5696c3.0451-1.6856 5.3486-4.0419 9.0008-6.0636 3.3604-1.8602 8.0212-3.8601 11.382-5.7202 3.6521-2.0217 6.2708-3.5782 9.3156-5.2637 5.9959-3.3191 10.597-5.7904 10.597-5.7904s-0.75413 3.3777-0.01136 7.5328c0.3663 2.0492 2.0876 3.873 2.5402 6.4049 0.40029 2.2393-0.32066 4.7559 0.10119 7.1158s2.0054 4.6543 2.4057 6.8937c0.45265 2.5322 0.74901 4.4383 1.1153 6.4877 0.7427 4.1548 2.5077 6.7537 2.5077 6.7537s4.2607-1.6342 11.853-4.1615c4.0393-1.3446 8.7883-2.3693 13.382-3.8984s9.1564-3.4104 13.196-4.7552c7.5924-2.5274 11.977-4.4327 11.977-4.4327s-1.7744 3.4709-6.3272 7.8383c-2.3117 2.2176-5.107 4.5486-7.8797 7.2084-2.5511 2.4473-4.9541 4.6072-7.5052 7.0544-2.7726 2.6598-5.1441 5.6249-7.4557 7.8424-4.552 4.3666-7.6721 7.4493-7.6721 7.4493s3.9122-1.5162 11.177-3.9144c3.5125-1.1595 7.8732-2.5333 12.298-3.9938 3.8212-1.2614 7.938-2.6536 12.083-4.0219l11.921-3.9406c4.1457-1.3685 9.1658-2.3635 12.988-3.625 4.4249-1.4606 7.5548-2.8718 11.068-4.0314 7.2652-2.3982 11.922-4.4352 11.922-4.4352s-2.3318 2.1737-7.4902 5.6298c-2.544 1.7044-6.3402 3.4452-9.4834 5.5512-2.78 1.8626-5.651 4.3044-8.5807 6.2673s-6.0794 4.0402-8.8594 5.9028c-3.1436 2.1062-6.2794 4.0587-8.8236 5.7633-5.1579 3.4558-7.5836 5.8278-7.5836 5.8278s4.5282-0.6167 11.618-1.4464l11.509-1.356c3.973-0.46492 8.1775-0.92155 12.15-1.3865 4.3179-0.5053 8.1776-1.06 11.778-1.4813 7.089-0.82958 12.348-1.3565 12.348-1.3565s-3.3879 2.3456-7.9002 5.4073c-2.4007 1.629-5.0772 3.0839-7.8073 4.9363s-5.1444 3.7317-7.5455 5.3608c-4.5125 3.0619-8.1494 6.0024-8.1494 6.0024s4.7004-0.46427 11.434-1.7502c3.4192-0.65292 6.3952-2.0608 10.496-2.8439 3.7733-0.72054 8.7395-1.8484 12.513-2.5689 4.1009-0.7831 7.9323-1.3206 11.351-1.9735 6.7326-1.2856 11.723-2.1936 11.723-2.1936s-3.726 1.9025-8.8378 5.0282c-2.5956 1.5872-4.5505 4.3873-7.6636 6.2909-2.8644 1.7515-6.0986 3.0442-8.963 4.7956-3.1131 1.9036-6.7397 3.5901-9.3352 5.1772-5.1109 3.1252-9.1605 4.8923-9.1605 4.8923s4.0751 0.01897 11.637 0.35704c3.7292 0.16674 9.3249 0.82534 13.933 1.0314 4.0752 0.18221 8.4125 0.47821 12.707 0.67022s8.6901 0.36403 12.765 0.54622c4.6083 0.20604 9.7735-0.16265 13.503 0.00409 7.5611 0.33805 10.809 1.4847 10.809 1.4847s-4.0237 2.017-10.429 5.0471c-3.2526 1.5386-8.3628 2.514-12.264 4.3594-3.5894 1.6979-5.8538 4.3795-9.4431 6.0774-3.901 1.8454-7.3756 3.8883-10.628 5.4268-6.4045 3.0296-10.848 3.9673-10.848 3.9673s5.9294 0.97524 14.258 1.2908c4.2291 0.16021 9.6104-0.22379 14.683-0.03163 4.6671 0.17679 9.087 0.66825 13.754 0.84505 5.0723 0.19216 9.8036-0.66732 14.032-0.50712 8.3274 0.31547 13.375 1.5039 13.375 1.5039s-5.2143 1.8158-13.153 3.9874c-4.0312 1.1027-7.4939 2.2858-12.329 3.6083-4.4486 1.2168-9.9146 1.6874-14.363 2.9042-4.8348 1.3225-9.4964 3.3199-13.527 4.4225-7.9376 2.1712-13.403 3.9896-13.403 3.9896s3.4745 1.1078 8.3112 3.5472c2.4559 1.2387 5.7182 3.0781 8.6638 4.5638 2.7102 1.3669 4.5092 3.3361 7.2194 4.703 2.9456 1.4856 6.1116 2.0662 8.5673 3.3048 4.8359 2.439 8.3141 3.7077 8.3141 3.7077s-5.664 0.72879-13.615 0.85893c-4.2303 0.06924-9.139 0.5123-13.95 0.59104s-9.547-0.2078-13.778-0.13854c-7.9515 0.13014-13.438 0.46503-13.438 0.46503s2.9379 1.7523 8.6734 4.5124c2.9123 1.4015 6.3015 2.2124 9.7944 3.8934 3.2139 1.5466 6.7513 4.0554 9.9651 5.602 3.4929 1.6809 6.399 3.1263 9.3111 4.5277 5.7345 2.7596 9.6126 4.6488 9.6126 4.6488s-4.5352-0.35507-11.627-0.71938c-3.773-0.19383-9.3332-0.30282-13.624-0.52323s-7.4763-0.43291-11.25-0.62676c-7.0919-0.36432-12.18-0.55447-12.18-0.55447s2.0595 2.5477 4.6064 6.7583c1.2933 2.138 2.7959 4.9291 4.347 7.4934 1.4272 2.3594 2.7202 5.1667 4.1474 7.526 1.5511 2.5642 3.0585 4.6393 4.3517 6.7772 2.5465 4.2098 4.724 7.1018 4.724 7.1018s-5.1176-0.62213-11.281-1.6122c-3.279-0.52678-6.6679-1.2423-10.397-1.8413s-7.4591-1.0159-10.738-1.5428c-6.1632-0.99015-11.186-1.0798-11.186-1.0798s2.2884 2.3204 3.967 6.6575c0.8931 2.3075 1.3274 5.0225 2.343 7.6464s1.8338 5.1996 2.727 7.5073c1.6787 4.3372 2.9862 7.7088 2.9862 7.7088l-0.0825 0.01761" fill="none" stroke="#1a1a1a" stroke-width="3.9211"/>
  <g fill="#d40000" opacity=".9091">
   <path transform="matrix(1.0413 0 0 1.0413 -155.68 316.23)" d="m823.21 137.34c-17.277 1.6539-33.316 9.0823-49.687 14.395-4.9336 4.3774-2.0502 12.398-3.4093 18.372-1.5192 26.837-4.3736 53.774-6.2819 80.591 1.1626 7.3694 10.201 4.975 15.089 3.5671 22.3-5.739 43.7-19.283 55.464-39.459 4.5358-7.7306 6.6972-21.615-3.5671-25.759-3.151-1.0924-6.564-1.1865-9.849-0.82075 9.9757-10.856 21.414-24.191 19.603-39.901-1.3982-8.0961-9.9539-11.571-17.362-10.985zm-12.311 32.199c2.2186 0.31178-1.1456 4.1703-1.5468 5.3664-2.6071 3.8834-5.8958 7.1252-9.3439 10.291 1.1818-4.3234 0.78855-9.8181 3.062-13.479 2.5077-0.94658 5.0974-2.0359 7.8287-2.1781zm0.53665 37.155c3.5152-0.45159 0.49154 3.7968-0.69448 4.8298-4.2931 4.1513-9.6385 6.9515-14.931 9.5964 0.51419-3.4406 0.02746-7.995 1.8309-10.764 4.429-1.6908 9.0096-3.3447 13.795-3.6618z"/>
   <path transform="matrix(1.0413 0 0 1.0413 -155.68 316.23)" d="m918.41 127.71c-15.516 2.6314-31.163 5.6684-46.338 9.5119-4.6481 4.9043-4.9956 13.013-8.0065 19.163-10.212 27.777-21.925 54.989-34.391 81.842-1.5852 6.2595 6.3572 5.9738 10.166 4.5774 8.3706-2.1433 17.64-2.0781 25.379-5.84 2.7815-4.545 0.77056-13.343 8.3067-12.624 5.5753-2.07-0.25005 7.7386 0.50053 10.604-0.89981 6.9733 7.0786 5.0884 11.054 3.5637 7.9449-2.7354 17.098-2.9284 24.364-7.1308 4.0306-6.8524 1.764-15.544 3.1462-23.163 1.4202-25.699 5.3658-51.27 10.049-76.495 0.13481-2.1243-2.1673-4.2443-4.23-4.009zm-35.45 57.326c-1.319 5.1474-1.5898 11.45-3.4724 16.005-6.0801 2.0944 0.56709-7.2964 0.41669-10.407 1.637-5.2562 3.3006-10.508 4.9497-15.762l-1.894 10.165z"/>
   <path transform="matrix(1.0413 0 0 1.0413 -155.68 316.23)" d="m1012.3 137.09c-6.337 2.2638-14.777 1.0546-19.603 6.0294-3.4865 9.8833-6.9024 19.799-10.417 29.673 1.15-10.208 3.9787-21.323 3.5987-31.157-2.4954-5.8978-10.212-1.3334-14.931-1.3574-8.5066 2.109-17.845 2.2404-25.696 6.0294-9.3405 31.506-20.647 62.488-34.156 92.492-2.7302 3.4645-1.0163 9.9473 3.9459 8.7441 9.4988-1.3124 19.455-2.1512 28.432-5.2166 5.1488-10.201 7.6912-22.167 11.852-33.035 2.6713-7.8974 5.3528-15.794 8.1396-23.652-2.9601 20.854-7.5163 41.622-9.6912 62.503 2.2192 6.5924 10.305 1.9589 14.964 1.6319 8.2875-0.38417 7.3365-10.847 10.453-16.41 4.3314-12.401 8.596-24.831 12.969-37.214-1.6879 13.477-3.751 26.931-4.8298 40.469 1.738 6.8677 9.866 2.5113 14.595 2.1961 6.6561-1.7785 14.053-2.1341 20.034-5.7001 3.4811-7.0954 0.9739-15.659 2.3171-23.323 1.3637-24.435 5.7762-48.742 8.9641-72.903-2.2856-6.7653-11.038-0.74635-16.11-0.80553l-4.8311 1.0046z"/>
   <path transform="matrix(1.0413 0 0 1.0413 -155.68 316.23)" d="m1069.6 114.86c-6.9453 17.548-11.674 36.152-17.738 54.114-1.3178 6.328-5.271 12.38-4.864 18.87 3.5603 5.6662 11.755 2.7151 17.33 3.0936 8.031 0.52355 9.0423-9.3702 11.806-14.71 7.3638-18.98 17.796-36.625 27.369-54.517 2.0202-6.7055-6.6101-6.4277-10.825-6.6954-7.6148 0.04369-15.727-1.9748-23.078-0.15466z"/>
   <path transform="matrix(1.0413 0 0 1.0413 -155.68 316.23)" d="m1055.9 203.19c-10.754 0.5667-21.458 7.6572-25.854 17.488-2.4073 7.1859 4.4991 14.248 11.743 12.438 11.893-0.77916 25.672-8.3336 27.369-21.087 0.0506-6.9496-7.5266-9.2787-13.258-8.8388z"/>
  </g>
  <path d="m646.86 485.03c3.5343-1.0554 10.125-3.4336 19.772-7.1347 8.34-3.0994 15.06-5.302 20.16-6.6076 2.0039-0.41818 3.9564-0.77914 5.8573-1.0829 14.76-2.3576 22.497 1.0211 23.212 10.136 1.1687 12.872-6.8318 27.208-24.001 43.01 11.456-2.5172 18.364-0.77327 20.724 5.2316 0.45841 1.3014 0.75356 2.6779 0.88544 4.1296 0.65899 7.2586-2.6987 15.257-10.073 23.995-5.6316 6.6925-12.778 12.94-21.44 18.742-10.372 6.9588-22.603 11.563-36.692 13.814-2.2364 0.35724-4.4772 0.66608-6.7223 0.92654 2.5595-20.537 4.9468-47.968 7.1619-82.294 0.70431-9.7345 1.09-17.356 1.157-22.865m23.263 57.551c-0.56064 3.8206-1.0586 8.9566-1.4937 15.408 15.389-6.68 22.841-12.682 22.358-18.005-0.17579-1.9356-2.2205-2.5908-6.1342-1.9657-3.4664 0.55376-8.3765 2.0745-14.73 4.5621m5.6926-40.38c-0.60459 3.3368-1.1532 6.6645-1.646 9.9832l-1.4782 9.9564c7.7673-5.659 13.125-11.62 16.073-17.884 0.66846-1.3831 0.96755-2.4618 0.8973-3.2361-0.14944-1.6452-1.6778-2.2356-4.585-1.7713-2.2364 0.35732-5.3234 1.3414-9.261 2.9521m29.988 75.516c18.124-37.766 33.051-74.027 44.78-108.78l51.444-10.422c-7.1604 30.089-11.371 65.447-12.631 106.07l-35.964 9.247 3.3462-18.558-11.35 2.5562-4.1109 13.164-35.516 6.7235m54.55-42.337 10.227-56.124-0.16812 0.00957-18.355 57.909 8.2971-1.7947m28.36 46.705c16.634-34.448 29.709-69.282 39.223-104.5l40.437-8.0322-8.1366 54.389 17.871-50.829 38.931-8.0934c-6.0288 32.278-9.6191 61.282-10.771 87.012-0.22875 5.1069-0.39915 10.161-0.51123 15.164l-34.701 7.2649 8.9411-64.867-25.222 72.7-18.592 3.2623 15.159-91.376-27.474 81.791-35.153 6.1151m149.3-43.812c3.9257-0.84724 7.4028-0.67479 10.431 0.51737 3.5892 1.239 5.3838 3.5224 5.3838 6.8504 0 4.5026-2.748 8.8642-8.244 13.085-4.2622 3.325-8.9171 5.5112-13.964 6.5586-4.0379 0.85749-7.515 0.78293-10.431-0.22371-3.4771-1.2492-5.2156-3.5378-5.2156-6.8658 1e-5 -4.5026 2.6359-8.9029 7.9075-13.201 4.2622-3.4229 8.9731-5.6631 14.133-6.7208m19.012-93.058 35.163 1.9335c-9.3097 15.433-16.152 27.46-20.526 36.081-5.9448 11.798-11.216 24.465-15.815 38.001l-23.386 1.2509 24.564-77.266" fill="none" opacity=".9174" stroke="#000" stroke-width="3.1238"/>
 </g>
</svg>
